<svg aria-hidden="true" style="position: absolute; width: 0; height: 0; overflow: hidden;" version="1.1" xmlns="http://www.w3.org/2000/svg" xmlns:xlink="http://www.w3.org/1999/xlink">
<defs>
<symbol id="icon-brand" viewBox="0 0 32 32">
<title>brand</title>
<path d="M16 0c-8.84 0-16 7.164-16 16 0 7.070 4.584 13.066 10.94 15.18 0.8 0.15 1.094-0.344 1.094-0.77 0-0.38-0.014-1.386-0.020-2.72-4.452 0.966-5.39-2.146-5.39-2.146-0.728-1.848-1.78-2.34-1.78-2.34-1.45-0.992 0.112-0.972 0.112-0.972 1.606 0.112 2.45 1.648 2.45 1.648 1.428 2.446 3.746 1.74 4.66 1.33 0.144-1.034 0.556-1.74 1.014-2.14-3.554-0.4-7.288-1.776-7.288-7.906 0-1.746 0.62-3.174 1.646-4.294-0.18-0.404-0.72-2.030 0.14-4.234 0 0 1.34-0.43 4.4 1.64 1.28-0.356 2.64-0.532 4-0.54 1.36 0.008 2.72 0.184 4 0.54 3.040-2.070 4.38-1.64 4.38-1.64 0.86 2.204 0.32 3.83 0.16 4.234 1.020 1.12 1.64 2.548 1.64 4.294 0 6.146-3.74 7.5-7.3 7.894 0.56 0.48 1.080 1.46 1.080 2.96 0 2.14-0.020 3.86-0.020 4.38 0 0.42 0.28 0.92 1.1 0.76 6.402-2.098 10.982-8.098 10.982-15.158 0-8.836-7.164-16-16-16z"></path>
</symbol>
<symbol id="icon-brand2" viewBox="0 0 32 32">
<title>brand2</title>
<path fill="#f7df1e" style="fill: var(--color1, #f7df1e)" d="M0 0h32v32h-32v-32zM29.38 24.368c-0.234-1.46-1.186-2.686-4.006-3.83-0.98-0.46-2.070-0.78-2.396-1.52-0.12-0.44-0.14-0.68-0.060-0.94 0.2-0.86 1.22-1.12 2.020-0.88 0.52 0.16 1 0.56 1.3 1.2 1.38-0.9 1.38-0.9 2.34-1.5-0.36-0.56-0.54-0.8-0.78-1.040-0.84-0.94-1.96-1.42-3.78-1.38l-0.94 0.12c-0.9 0.22-1.76 0.7-2.28 1.34-1.52 1.72-1.080 4.72 0.76 5.96 1.82 1.36 4.48 1.66 4.82 2.94 0.32 1.56-1.16 2.060-2.62 1.88-1.080-0.24-1.68-0.78-2.34-1.78l-2.44 1.4c0.28 0.64 0.6 0.92 1.080 1.48 2.32 2.34 8.12 2.22 9.16-1.34 0.040-0.12 0.32-0.94 0.1-2.2zM17.4 14.708h-2.996c0 2.584-0.012 5.152-0.012 7.74 0 1.644 0.084 3.152-0.184 3.614-0.44 0.92-1.572 0.8-2.088 0.64-0.528-0.26-0.796-0.62-1.106-1.14-0.084-0.14-0.148-0.26-0.17-0.26l-2.434 1.5c0.406 0.84 1 1.56 1.766 2.020 1.14 0.68 2.672 0.9 4.276 0.54 1.044-0.3 1.944-0.92 2.414-1.88 0.68-1.24 0.536-2.76 0.53-4.46 0.016-2.74 0-5.48 0-8.24z"></path>
</symbol>
<symbol id="icon-brand3" viewBox="0 0 32 32">
<title>brand3</title>
<path fill="#0077b5" style="fill: var(--color2, #0077b5)" d="M27.264 27.27h-4.74v-7.426c0-1.772-0.036-4.050-2.468-4.050-2.47 0-2.848 1.928-2.848 3.92v7.556h-4.74v-15.27h4.552v2.080h0.060c0.636-1.2 2.184-2.466 4.494-2.466 4.8 0 5.69 3.16 5.69 7.274v8.376zM7.116 9.91c-1.524 0-2.752-1.234-2.752-2.754 0-1.516 1.228-2.75 2.752-2.75 1.52 0 2.752 1.234 2.752 2.75 0 1.52-1.234 2.754-2.752 2.754zM9.492 27.27h-4.752v-15.27h4.752v15.27zM29.632 0h-27.272c-1.304 0-2.36 1.032-2.36 2.306v27.388c0 1.274 1.056 2.306 2.36 2.306h27.27c1.304 0 2.37-1.032 2.37-2.306v-27.388c0-1.274-1.066-2.306-2.37-2.306z"></path>
</symbol>
<symbol id="icon-brand4" viewBox="0 0 32 32">
<title>brand4</title>
<path fill="#00d8ff" style="fill: var(--color3, #00d8ff)" d="M16.014 5.3l0.014-0.016c0.666-0.64 1.37-1.24 2.124-1.774 0.296-0.21 0.6-0.41 0.914-0.6 0.272-0.16 0.55-0.31 0.834-0.448 0.22-0.1 0.44-0.2 0.666-0.28 0.2-0.080 0.41-0.14 0.62-0.2 0.32-0.080 0.644-0.16 0.974-0.18h0.364c0.094 0 0.188 0 0.28 0.020 0.2 0.020 0.4 0.060 0.594 0.12 0.16 0.060 0.32 0.12 0.48 0.2 0.1 0.060 0.18 0.12 0.28 0.18 0.16 0.12 0.3 0.24 0.42 0.38 0.1 0.14 0.22 0.26 0.3 0.4 0.2 0.32 0.36 0.66 0.48 1 0.040 0.1 0.060 0.2 0.1 0.32 0.040 0.14 0.060 0.28 0.1 0.42 0.040 0.18 0.060 0.36 0.1 0.54l0.060 0.68c0.020 0.28 0.020 0.58 0.020 0.88 0 0.38-0.020 0.76-0.060 1.14-0.060 0.48-0.12 0.94-0.2 1.4-0.060 0.28-0.1 0.56-0.16 0.84l-0.12 0.48 0.26 0.080c0.48 0.14 0.94 0.3 1.42 0.48 0.36 0.14 0.74 0.3 1.1 0.48 0.32 0.16 0.64 0.32 0.94 0.5 0.34 0.2 0.66 0.4 0.96 0.64 0.26 0.2 0.52 0.42 0.76 0.64 0.18 0.18 0.34 0.36 0.5 0.56 0.12 0.16 0.24 0.34 0.34 0.52 0.14 0.26 0.24 0.52 0.32 0.8 0.040 0.16 0.060 0.34 0.060 0.52 0 0.1 0 0.22-0.020 0.34-0.020 0.18-0.060 0.38-0.12 0.56-0.040 0.18-0.12 0.34-0.2 0.5-0.18 0.34-0.4 0.66-0.66 0.96-0.080 0.1-0.16 0.18-0.24 0.26-0.12 0.12-0.22 0.22-0.34 0.32-0.14 0.12-0.3 0.26-0.46 0.36-0.2 0.16-0.4 0.3-0.6 0.42-0.26 0.18-0.54 0.34-0.82 0.48-0.36 0.18-0.7 0.36-1.060 0.52s-0.72 0.3-1.1 0.44c-0.32 0.12-0.64 0.22-0.96 0.32l-0.1 0.040c0.040 0.16 0.080 0.32 0.1 0.48 0.040 0.24 0.1 0.48 0.14 0.72 0.080 0.48 0.16 0.98 0.2 1.46 0.020 0.38 0.040 0.76 0.040 1.12 0 0.3-0.020 0.6-0.040 0.88-0.020 0.24-0.040 0.46-0.080 0.7-0.040 0.18-0.060 0.38-0.1 0.56l-0.12 0.44c-0.080 0.24-0.18 0.5-0.28 0.74-0.1 0.18-0.2 0.38-0.32 0.56s-0.26 0.34-0.42 0.5c-0.18 0.18-0.38 0.32-0.58 0.44-0.16 0.080-0.34 0.16-0.5 0.2-0.28 0.080-0.56 0.12-0.84 0.136-0.38 0.012-0.76-0.040-1.14-0.12-0.24-0.054-0.46-0.12-0.68-0.2-0.26-0.080-0.5-0.188-0.74-0.3-0.3-0.132-0.58-0.28-0.86-0.44-0.32-0.18-0.64-0.38-0.94-0.6-0.78-0.54-1.52-1.16-2.2-1.82l-0.16 0.14c-0.32 0.3-0.64 0.58-0.96 0.86-0.34 0.26-0.68 0.52-1.040 0.78-0.32 0.22-0.64 0.42-0.98 0.62-0.32 0.18-0.66 0.34-0.98 0.48-0.24 0.1-0.48 0.2-0.72 0.28-0.24 0.072-0.46 0.14-0.7 0.18-0.38 0.080-0.74 0.12-1.12 0.112-0.3 0-0.6-0.040-0.88-0.14-0.18-0.048-0.36-0.12-0.52-0.22-0.12-0.060-0.22-0.14-0.32-0.22-0.080-0.060-0.14-0.12-0.2-0.18-0.060-0.040-0.1-0.080-0.14-0.14-0.28-0.3-0.5-0.64-0.66-1.020l-0.060-0.18c-0.020-0.080-0.060-0.16-0.080-0.22-0.040-0.1-0.060-0.22-0.1-0.32-0.040-0.14-0.060-0.26-0.1-0.4-0.040-0.18-0.080-0.348-0.1-0.526-0.020-0.22-0.060-0.46-0.060-0.68-0.020-0.3-0.020-0.58-0.020-0.88 0-0.38 0.020-0.76 0.060-1.12 0.040-0.48 0.12-0.94 0.2-1.42l0.24-1.14-0.4-0.12c-0.48-0.146-0.94-0.32-1.4-0.5-0.32-0.12-0.62-0.26-0.94-0.42-0.28-0.14-0.56-0.28-0.84-0.46-0.36-0.2-0.694-0.42-1.016-0.66-0.26-0.2-0.52-0.42-0.78-0.66 0.078-0.424-0.102-0.624-0.262-0.824-0.14-0.18-0.266-0.366-0.38-0.564-0.1-0.18-0.18-0.372-0.252-0.568-0.020-0.088-0.048-0.18-0.068-0.268-0.050-0.184-0.076-0.374-0.080-0.564 0-0.12 0.004-0.24 0.016-0.356 0.012-0.088 0.026-0.18 0.046-0.266l0.058-0.214c0.128-0.42 0.35-0.812 0.62-1.16 0.036-0.052 0.074-0.1 0.114-0.148 0.052-0.064 0.106-0.126 0.16-0.186 0.076-0.084 0.154-0.164 0.236-0.244l0.34-0.3c0.15-0.12 0.3-0.24 0.456-0.36 0.2-0.14 0.408-0.28 0.62-0.42 0.26-0.16 0.532-0.32 0.808-0.46 0.352-0.18 0.712-0.34 1.080-0.5 0.66-0.28 1.336-0.5 2.024-0.7l0.16-0.040c-0.1-0.42-0.2-0.84-0.28-1.26-0.080-0.44-0.16-0.9-0.2-1.36-0.040-0.36-0.060-0.72-0.080-1.1-0.020-0.28 0-0.58 0-0.88 0-0.22 0.020-0.44 0.060-0.66 0.020-0.18 0.040-0.36 0.080-0.54 0.020-0.14 0.060-0.28 0.1-0.42 0.020-0.1 0.060-0.22 0.1-0.32l0.080-0.2c0.020-0.060 0.040-0.12 0.080-0.18 0.16-0.36 0.36-0.72 0.64-1.020 0.060-0.060 0.12-0.12 0.2-0.18 0.060-0.060 0.12-0.1 0.18-0.16 0.080-0.060 0.18-0.12 0.28-0.18 0.16-0.080 0.32-0.16 0.5-0.2 0.2-0.060 0.4-0.1 0.6-0.12 0.060 0 0.12-0.020 0.18-0.020h0.3l0.22 0.020c0.32 0.040 0.64 0.1 0.96 0.18 0.2 0.060 0.42 0.12 0.62 0.2 0.22 0.080 0.42 0.18 0.64 0.28 0.32 0.16 0.62 0.32 0.92 0.5 0.32 0.2 0.64 0.4 0.96 0.62 0.36 0.26 0.72 0.54 1.080 0.84 0.28 0.24 0.54 0.48 0.82 0.72l0.18 0.18zM24.028 21.696c-0.234 0.054-0.47 0.106-0.706 0.152-0.54 0.11-1.080 0.204-1.62 0.284-0.58 0.084-1.16 0.154-1.76 0.21-0.080 0.020-0.16 0.020-0.24 0.040-0.36 0.54-0.76 1.080-1.16 1.58-0.42 0.56-0.86 1.1-1.32 1.6l-0.2 0.22c0.6 0.58 1.22 1.12 1.9 1.6 0.28 0.2 0.56 0.38 0.84 0.56 0.24 0.16 0.5 0.28 0.76 0.42 0.22 0.1 0.44 0.2 0.68 0.28 0.18 0.060 0.36 0.12 0.56 0.16 0.16 0.040 0.32 0.080 0.48 0.080 0.14 0.020 0.28 0.020 0.4 0.020 0.2 0 0.42-0.040 0.6-0.12l0.16-0.080c0.12-0.060 0.22-0.16 0.3-0.26 0.12-0.14 0.22-0.3 0.32-0.46 0.040-0.040 0.060-0.1 0.1-0.16l0.1-0.24c0.040-0.1 0.080-0.2 0.1-0.32 0.040-0.14 0.080-0.26 0.1-0.4 0.040-0.18 0.060-0.36 0.1-0.54s0.040-0.38 0.060-0.58c0.020-0.44 0.020-0.88-0.020-1.32-0.020-0.42-0.080-0.86-0.14-1.28-0.060-0.34-0.12-0.7-0.2-1.040l-0.080-0.34zM8.042 21.756l-0.12 0.58c-0.14 0.664-0.24 1.336-0.3 2.014-0.040 0.448-0.040 0.9-0.040 1.348 0.020 0.18 0.020 0.38 0.040 0.58 0.020 0.18 0.060 0.34 0.080 0.52 0.020 0.12 0.060 0.26 0.080 0.38 0.040 0.1 0.060 0.2 0.1 0.3 0.040 0.080 0.060 0.16 0.1 0.24l0.1 0.18c0.020 0.040 0.040 0.080 0.080 0.12l0.060 0.1 0.060 0.080c0.12 0.16 0.24 0.3 0.42 0.4l0.12 0.060c0.1 0.040 0.18 0.080 0.28 0.1 0.14 0.020 0.26 0.040 0.4 0.040s0.28 0 0.4-0.020c0.16-0.020 0.32-0.060 0.48-0.080 0.2-0.040 0.38-0.1 0.56-0.16 0.22-0.080 0.42-0.16 0.64-0.26 0.3-0.14 0.58-0.28 0.84-0.44 0.3-0.18 0.6-0.38 0.9-0.58 0.3-0.22 0.6-0.44 0.88-0.68 0.18-0.14 0.34-0.28 0.52-0.44 0.14-0.14 0.3-0.26 0.44-0.4l0.060-0.060-0.34-0.38c-0.46-0.52-0.9-1.060-1.34-1.6-0.36-0.46-0.72-0.94-1.060-1.42h-0.12c-0.62-0.060-1.24-0.12-1.84-0.2-0.56-0.080-1.12-0.18-1.68-0.28l-0.66-0.14zM17.942 22.48c-0.6 0.028-1.22 0.040-1.84 0.044-0.58 0-1.16-0.008-1.76-0.030l-0.2-0.006 0.42 0.524c0.4 0.492 0.8 0.972 1.22 1.44 0.1 0.114 0.2 0.228 0.32 0.34l0.16-0.18c0.42-0.474 0.82-0.966 1.22-1.47 0.16-0.2 0.34-0.42 0.5-0.66zM18.942 10.956c-0.62-0.048-1.26-0.080-1.9-0.096-0.3-0.008-0.6-0.012-0.92-0.014h-0.14c-0.3 0-0.58 0.004-0.88 0.012-0.66 0-1.32 0.040-1.98 0.080-0.38 0.56-0.74 1.12-1.1 1.7-0.4 0.66-0.78 1.34-1.14 2.020-0.22 0.42-0.44 0.86-0.66 1.3 0.24 0.48 0.48 0.96 0.74 1.42 0.38 0.7 0.78 1.38 1.18 2.060 0.34 0.52 0.68 1.060 1.020 1.56l1.2 0.060c0.58 0.020 1.14 0.020 1.72 0.020 0.98 0 1.96-0.040 2.92-0.1 0.34-0.5 0.66-1.020 0.98-1.52 0.7-1.16 1.36-2.34 1.94-3.56-0.2-0.42-0.4-0.82-0.62-1.22-0.28-0.54-0.58-1.060-0.88-1.56-0.42-0.72-0.86-1.44-1.34-2.14l-0.080-0.12zM9.462 17.616c-0.14 0.36-0.3 0.732-0.44 1.1-0.22 0.57-0.42 1.144-0.6 1.72 0.34 0.080 0.7 0.144 1.040 0.204 0.5 0.088 1.020 0.16 1.52 0.224 0.14 0.020 0.28 0.034 0.42 0.048-0.22-0.346-0.44-0.696-0.64-1.048-0.44-0.736-0.86-1.488-1.26-2.25zM22.602 17.564c-0.2 0.394-0.42 0.78-0.62 1.17-0.24 0.432-0.48 0.86-0.74 1.288-0.16 0.3-0.34 0.58-0.52 0.88l0.3-0.040c0.5-0.060 1-0.14 1.48-0.22 0.4-0.060 0.82-0.14 1.22-0.24-0.16-0.54-0.36-1.080-0.58-1.62-0.14-0.4-0.32-0.8-0.48-1.18zM7.122 11.964l-0.44 0.132c-0.48 0.15-0.98 0.32-1.44 0.516-0.28 0.116-0.56 0.24-0.84 0.38-0.3 0.146-0.58 0.304-0.88 0.48-0.24 0.15-0.5 0.316-0.72 0.496-0.18 0.132-0.34 0.272-0.5 0.424-0.14 0.126-0.26 0.26-0.38 0.4-0.080 0.11-0.16 0.22-0.24 0.34-0.060 0.1-0.12 0.2-0.16 0.308-0.060 0.146-0.1 0.3-0.1 0.46v0.12c0 0.176 0.060 0.352 0.12 0.514l0.040 0.086 0.060 0.104 0.080 0.14 0.12 0.17 0.16 0.192c0.060 0.080 0.14 0.156 0.2 0.23 0.1 0.092 0.18 0.18 0.28 0.268 0.12 0.1 0.22 0.194 0.34 0.286 0.16 0.12 0.32 0.24 0.48 0.352 0.2 0.14 0.4 0.28 0.62 0.4 0.28 0.16 0.56 0.3 0.84 0.44 0.34 0.16 0.7 0.32 1.040 0.46 0.32 0.12 0.62 0.24 0.92 0.32l0.46 0.14 0.42-1.26c0.26-0.7 0.52-1.38 0.82-2.060l0.36-0.76-0.34-0.76c-0.3-0.68-0.58-1.4-0.84-2.1-0.14-0.38-0.28-0.78-0.4-1.18zM24.942 11.984c-0.1 0.344-0.22 0.686-0.34 1.026-0.24 0.716-0.52 1.424-0.84 2.12l-0.38 0.85 0.48 1.040c0.3 0.65 0.56 1.308 0.8 1.974 0.14 0.344 0.26 0.692 0.36 1.040l0.24-0.072c0.28-0.080 0.54-0.16 0.8-0.26 0.54-0.18 1.060-0.4 1.56-0.66 0.32-0.14 0.62-0.32 0.9-0.5 0.26-0.14 0.5-0.32 0.74-0.5 0.18-0.12 0.34-0.26 0.5-0.42 0.14-0.12 0.28-0.28 0.4-0.42 0.1-0.1 0.18-0.22 0.26-0.34 0.060-0.1 0.12-0.2 0.16-0.3 0.080-0.14 0.12-0.3 0.12-0.48 0.020-0.040 0.020-0.080 0-0.14 0-0.1-0.020-0.22-0.060-0.32-0.040-0.14-0.1-0.26-0.18-0.38l-0.060-0.12-0.1-0.14c-0.040-0.060-0.1-0.12-0.14-0.18-0.060-0.060-0.12-0.14-0.2-0.22s-0.18-0.16-0.26-0.24c-0.12-0.1-0.24-0.2-0.38-0.3-0.14-0.12-0.3-0.22-0.44-0.32-0.2-0.14-0.4-0.26-0.62-0.38-0.26-0.14-0.54-0.28-0.82-0.4-0.32-0.16-0.66-0.28-1-0.42-0.46-0.18-0.94-0.32-1.42-0.46zM16 13.118c-1.58 0-2.86 1.28-2.86 2.86 0 1.576 1.28 2.856 2.86 2.856s2.86-1.28 2.86-2.854c0-1.58-1.28-2.86-2.86-2.86zM20.672 11.14c0.352 0.548 0.69 1.108 1.016 1.674 0.3 0.524 0.596 1.054 0.88 1.59 0.17-0.404 0.334-0.812 0.49-1.224 0.18-0.506 0.36-1.016 0.52-1.532-0.34-0.080-0.68-0.15-1.040-0.214-0.64-0.12-1.26-0.216-1.9-0.296zM11.332 11.134c-0.29 0.036-0.576 0.076-0.864 0.12-0.49 0.074-0.98 0.16-1.466 0.26-0.18 0.036-0.38 0.076-0.56 0.12 0.18 0.55 0.36 1.096 0.56 1.634 0.14 0.38 0.3 0.76 0.46 1.134 0.36-0.68 0.74-1.38 1.14-2.040 0.26-0.4 0.5-0.82 0.76-1.22zM23.958 10.33l0.060-0.266c0.080-0.348 0.14-0.696 0.2-1.048 0.080-0.456 0.12-0.92 0.16-1.38 0.020-0.45 0.040-0.904 0.020-1.356-0.020-0.204-0.020-0.41-0.060-0.612-0.020-0.18-0.060-0.354-0.080-0.528-0.040-0.136-0.060-0.27-0.1-0.4-0.040-0.1-0.060-0.2-0.1-0.3l-0.058-0.232-0.074-0.156c-0.026-0.048-0.050-0.096-0.080-0.14-0.020-0.040-0.044-0.080-0.070-0.116-0.020-0.026-0.036-0.054-0.054-0.080-0.1-0.16-0.26-0.3-0.42-0.4-0.040-0.034-0.1-0.060-0.16-0.080-0.14-0.060-0.3-0.088-0.46-0.1-0.040 0-0.080 0-0.12-0.004h-0.040c-0.040 0-0.080 0-0.14 0.006-0.12 0-0.24 0.020-0.36 0.040-0.14 0.020-0.3 0.060-0.44 0.1l-0.54 0.18c-0.2 0.080-0.4 0.18-0.62 0.28-0.26 0.12-0.5 0.28-0.76 0.42-0.26 0.16-0.54 0.34-0.8 0.54-0.64 0.46-1.24 0.98-1.82 1.54l0.26 0.28c0.52 0.56 1 1.14 1.46 1.74 0.34 0.42 0.66 0.88 0.98 1.32l0.82 0.080c0.6 0.060 1.2 0.16 1.8 0.26 0.56 0.080 1.12 0.2 1.66 0.32zM15.060 6.274c-0.030-0.026-0.060-0.052-0.086-0.080-0.26-0.24-0.524-0.48-0.8-0.708-0.3-0.254-0.614-0.5-0.936-0.73-0.3-0.204-0.58-0.396-0.88-0.576-0.26-0.156-0.54-0.3-0.8-0.434-0.2-0.094-0.4-0.18-0.6-0.26-0.18-0.068-0.38-0.128-0.56-0.18-0.14-0.040-0.28-0.068-0.42-0.094-0.14-0.020-0.26-0.036-0.38-0.044l-0.14-0.004h-0.020c-0.040 0-0.080 0-0.12 0.004-0.2 0.010-0.4 0.046-0.58 0.124-0.060 0.026-0.12 0.056-0.18 0.092-0.12 0.074-0.22 0.168-0.3 0.27-0.12 0.14-0.22 0.294-0.3 0.456l-0.080 0.168c-0.040 0.060-0.060 0.14-0.080 0.22-0.040 0.1-0.080 0.18-0.1 0.28-0.020 0.12-0.060 0.26-0.080 0.38-0.020 0.16-0.060 0.32-0.080 0.5s-0.040 0.38-0.040 0.58c-0.020 0.44 0 0.88 0.020 1.32 0.040 0.68 0.16 1.36 0.3 2.040 0.040 0.22 0.1 0.44 0.14 0.66 0.2-0.060 0.42-0.1 0.62-0.14 0.48-0.1 0.98-0.2 1.48-0.26 0.54-0.1 1.1-0.16 1.64-0.22l0.5-0.060c0.32-0.46 0.66-0.9 1-1.34 0.44-0.56 0.9-1.12 1.38-1.64l0.36-0.4zM16.016 7.25l-0.326 0.36c-0.428 0.48-0.84 0.972-1.236 1.476l-0.34 0.44c0.248-0.014 0.494-0.024 0.74-0.030 0.32-0.010 0.64-0.014 0.96-0.016h0.232c0.288 0 0.576 0.004 0.864 0.010 0.33 0.008 0.66 0.020 0.988 0.034l-0.32-0.4c-0.42-0.544-0.86-1.076-1.32-1.588l-0.258-0.286z"></path>
</symbol>
<symbol id="icon-brand5" viewBox="0 0 32 32">
<title>brand5</title>
<path fill="#c69" style="fill: var(--color4, #c69)" d="M16 0c8.836 0 16 7.164 16 16s-7.164 16-16 16-16-7.164-16-16 7.164-16 16-16zM12.82 21.33c0.234 0.86 0.208 1.664-0.032 2.39l-0.088 0.24c-0.032 0.080-0.068 0.16-0.104 0.234-0.186 0.386-0.434 0.746-0.74 1.080-0.93 1.012-2.228 1.396-2.786 1.072-0.6-0.348-0.3-1.78 0.78-2.92 1.16-1.224 2.826-2.012 2.826-2.012v-0.004l0.144-0.080zM26.036 6.85c-0.724-2.844-5.436-3.78-9.896-2.194-2.654 0.944-5.526 2.424-7.592 4.356-2.456 2.296-2.848 4.296-2.688 5.132 0.57 2.948 4.61 4.876 6.272 6.306v0.008c-0.49 0.24-4.074 2.040-4.914 3.9-0.9 1.96 0.14 3.36 0.82 3.54 2.1 0.58 4.26-0.48 5.42-2.2 1.12-1.68 1.020-3.84 0.54-4.9 0.66-0.18 1.44-0.26 2.44-0.14 2.8 0.32 3.36 2.080 3.24 2.8s-0.7 1.14-0.9 1.26c-0.2 0.12-0.26 0.16-0.24 0.24 0.020 0.12 0.12 0.12 0.28 0.1 0.22-0.040 1.46-0.6 1.52-1.96 0.060-1.72-1.58-3.64-4.5-3.6-1.2 0.020-1.96 0.12-2.5 0.34-0.040-0.060-0.080-0.1-0.14-0.14-1.8-1.94-5.14-3.3-5-5.88 0.040-0.94 0.38-3.42 6.4-6.42 4.94-2.46 8.88-1.78 9.56-0.28 0.98 2.14-2.1 6.12-7.24 6.7-1.96 0.22-2.98-0.54-3.24-0.82-0.28-0.3-0.32-0.32-0.42-0.26-0.16 0.080-0.060 0.34 0 0.5 0.16 0.4 0.78 1.1 1.86 1.46 0.94 0.3 3.24 0.48 6-0.6 3.1-1.2 5.52-4.54 4.82-7.34z"></path>
</symbol>
<symbol id="icon-brand6" viewBox="0 0 32 32">
<title>brand6</title>
<path fill="#1da1f2" style="fill: var(--color5, #1da1f2)" d="M32 6.076c-1.18 0.52-2.44 0.874-3.77 1.034 1.354-0.814 2.396-2.1 2.886-3.632-1.268 0.74-2.674 1.28-4.17 1.58-1.196-1.28-2.9-2.080-4.792-2.080-3.624 0-6.564 2.94-6.564 6.56 0 0.52 0.060 1.020 0.17 1.5-5.456-0.26-10.294-2.88-13.532-6.84-0.568 0.962-0.888 2.082-0.888 3.302 0 2.28 1.16 4.286 2.92 5.464-1.076-0.034-2.090-0.33-2.974-0.82v0.080c0 3.18 2.26 5.836 5.266 6.44-0.552 0.148-1.132 0.228-1.73 0.228-0.42 0-0.82-0.040-1.22-0.116 0.84 2.608 3.26 4.506 6.14 4.56-2.24 1.76-5.080 2.808-8.14 2.808-0.52 0-1.040-0.030-1.56-0.090 2.92 1.86 6.36 2.948 10.080 2.948 12.080 0 18.68-10 18.68-18.66 0-0.28 0-0.56-0.020-0.84 1.28-0.92 2.4-2.080 3.28-3.4z"></path>
</symbol>

<symbol id="icon-portfolio-logo2" viewBox="0 0 32 32">
<title>portfolio-logo2</title>
<path fill="#fff" style="fill: var(--color1, #fff)" d="M8.613 8.845h13.979v13.624h-13.979v-13.624z"></path>
<path fill="#000" style="fill: var(--color2, #000)" d="M22.405 9.032v13.251h-13.605v-13.251h13.605zM22.779 8.659h-14.352v13.997h14.352v-13.997z"></path>
<path fill="#000" style="fill: var(--color2, #000)" d="M13.16 13.424c0 0.995-0.459 1.28-1.080 1.28-0.2 0-0.285-0.019-0.4-0.037v-0.312c0.093 0.019 0.259 0.032 0.413 0.032 0.627 0 0.707-0.464 0.707-0.968v-3.237h0.36v3.243z"></path>
<path fill="#000" style="fill: var(--color2, #000)" d="M16.939 13.443c0.139 0.592 0.552 0.944 1.32 0.944 0.853 0 1.179-0.408 1.179-0.893 0-0.504-0.232-0.816-1.259-1.059-0.987-0.235-1.413-0.541-1.413-1.187 0-0.587 0.445-1.133 1.445-1.133 1.027 0 1.459 0.6 1.52 1.141h-0.373c-0.107-0.477-0.432-0.821-1.165-0.821-0.672 0-1.040 0.299-1.040 0.797 0 0.491 0.307 0.683 1.165 0.885 1.312 0.312 1.507 0.816 1.507 1.352 0 0.656-0.499 1.224-1.579 1.224-1.165 0-1.592-0.651-1.68-1.248h0.373z"></path>
<path fill="#000" style="fill: var(--color2, #000)" d="M14.941 19.331c0 1.216-0.68 2.325-2.12 2.325-1.312 0-2.080-1.013-2.080-2.293 0-1.261 0.739-2.293 2.125-2.293 1.283 0 2.075 0.963 2.075 2.261zM11.131 19.344c0 1.027 0.592 1.995 1.712 1.995 1.205 0 1.712-0.944 1.712-2 0-1.040-0.573-1.949-1.699-1.949-1.197-0.003-1.725 0.947-1.725 1.955z"></path>
<path fill="#000" style="fill: var(--color2, #000)" d="M17.035 21.595v-4.461h0.533c0.725 1.069 2.432 3.563 2.725 4.045h0.005c-0.040-0.643-0.032-1.301-0.032-2.027v-2.021h0.365v4.461h-0.493c-0.693-1.032-2.424-3.627-2.757-4.117h-0.005c0.032 0.587 0.027 1.237 0.027 2.045v2.072h-0.368z"></path>
</symbol>

<symbol id="icon-paper-plane" viewBox="0 0 20 20">
<title>paper-plane</title>
<path d="M18.64 2.634c-0.344 0.121-17.321 6.104-17.656 6.222-0.284 0.1-0.347 0.345-0.010 0.479 0.401 0.161 3.796 1.521 3.796 1.521v0l2.25 0.901c0 0 10.838-7.958 10.984-8.066 0.148-0.108 0.318 0.095 0.211 0.211s-7.871 8.513-7.871 8.513v0.002l-0.452 0.503 0.599 0.322c0 0 4.65 2.504 4.982 2.682 0.291 0.156 0.668 0.027 0.752-0.334 0.099-0.426 2.845-12.261 2.906-12.525 0.079-0.343-0.148-0.552-0.491-0.431zM7 17.162c0 0.246 0.139 0.315 0.331 0.141 0.251-0.229 2.85-2.561 2.85-2.561l-3.181-1.644v4.064z"></path>
</symbol>

</defs>
</svg>
